# xmcd
#
# Track frame offsets: 
#        150
#        20253
#        38744
#        44897
#        98675
#        111803
#        128568
#        160971
#        190674
#        226752
#        273555
#
# Disc length: 3840 seconds
#
# Revision: 4
# Processed by: cddbd v1.5.2PL0 Copyright (c) Steve Scherf et al.
# Submitted via: ExactAudioCopy v0.99pb5
#
DISCID=880efe0b
DTITLE=Jimi Hendrix - Astro Man - Studio Outtakes Vol.2 1969
DYEAR=2003
DGENRE=Classic Rock
TTITLE0=Lover Man (3)
TTITLE1=The Things I Used To Do (5)
TTITLE2=Instrumental Jam (Rock And Roll Jam)
TTITLE3=Midnight Lightning Jam (2)
TTITLE4=Izabella (10)
TTITLE5=Ezy Rider Take #1 (10)
TTITLE6=Stepping Stone (2)
TTITLE7=It's Too Bad (i)
TTITLE8=World Traveller
TTITLE9=Larry Young Jam (2) (Young/Hendrix)
TTITLE10=Room Full Of Mirrors (4)
EXTD=Studio Outtakes 1969 [CD2]
EXTT0=
EXTT1=
EXTT2=
EXTT3=
EXTT4=
EXTT5=
EXTT6=
EXTT7=
EXTT8=
EXTT9=
EXTT10=
PLAYORDER=
